<svg xmlns="http://www.w3.org/2000/svg" width="32" height="32" viewBox="0 0 32 32">
  <g>
    <path fill="none" d="M0 0h32v32H0V0z"/>
    <path fill="none" stroke="rgb(17,17,39)" stroke-linecap="round" stroke-linejoin="round" stroke-width="2" d="M5 16h6c.55191502 0 1 .44808498 1 1v8.66666667c0 .55191502-.44808498 1-1 1H5c-.55191502 0-1-.44808498-1-1V17c0-.55191502.44808498-1 1-1z"/>
    <path fill="none" stroke="rgb(17,17,39)" stroke-linecap="round" stroke-linejoin="round" stroke-width="2" d="M13 10.66666667h6c.55191502 0 1 .44808497 1 1v14c0 .55191502-.44808498 1-1 1h-6c-.55191502 0-1-.44808498-1-1v-14c0-.55191503.44808498-1 1-1z"/>
    <path fill="none" stroke="rgb(17,17,39)" stroke-linecap="round" stroke-linejoin="round" stroke-width="2" d="M21 5.33333333h6c.55191502 0 1 .44808498 1 1v19.33333334c0 .55191502-.44808498 1-1 1h-6c-.55191502 0-1-.44808498-1-1V6.33333333c0-.55191502.44808498-1 1-1z"/>
    <path fill="none" stroke="rgb(32,40,66)" stroke-linecap="round" stroke-linejoin="round" stroke-width="2" d="M5.33333333 26.66666667H24"/>
  </g>
</svg>
