<svg xmlns="http://www.w3.org/2000/svg" width="30" height="30" viewBox="0 0 30 30">
  <g>
    <path fill="none" d="M0 0h30v30H0V0z"/>
    <path fill="none" stroke="rgb(17,17,39)" stroke-linecap="round" stroke-linejoin="round" stroke-width="1.875" d="M12.5 4c-5.41247844 1.2547383-9.09842743 6.27278728-8.6769473 11.8127914.42148012 5.54000412 4.82415178 9.94267578 10.3641559 10.3641559C19.72721272 26.59842743 24.7452617 22.91247844 26 17.5c0-.69035594-.55964406-1.25-1.25-1.25h-8.5c-1.38071187 0-2.5-1.11928813-2.5-2.5V5c-.03136917-.29913547-.18121646-.57325329-.41608287-.76114641C13.09905073 4.05096046 12.7987254 3.96494019 12.5 4"/>
    <path fill="none" stroke="rgb(17,17,39)" stroke-linecap="round" stroke-linejoin="round" stroke-width="1.875" d="M18.75 4.375c3.2147572 1.13195423 5.74304577 3.6602428 6.875 6.875H20c-.69035594 0-1.25-.55964406-1.25-1.25V4.375"/>
  </g>
</svg>
