<svg xmlns="http://www.w3.org/2000/svg" xmlns:xlink="http://www.w3.org/1999/xlink" width="28.852" height="37.406" viewBox="0 0 28.852 37.406">
  <defs>
    <clipPath id="clip-path">
      <path id="Clip_2" data-name="Clip 2" d="M0,0H24.82V10.141H0Z" transform="translate(0.042 0.175)" fill="none"/>
    </clipPath>
    <clipPath id="clip-path-2">
      <path id="Clip_7" data-name="Clip 7" d="M0,0H12.892V26.042H0Z" transform="translate(0 0.131)" fill="none"/>
    </clipPath>
  </defs>
  <g id="logo" transform="translate(0 -0.336)">
    <g id="Group_3" data-name="Group 3" transform="translate(3.99 0.161)">
      <path id="Clip_2-2" data-name="Clip 2" d="M0,0H24.82V10.141H0Z" transform="translate(0.042 0.175)" fill="none"/>
      <g id="Group_3-2" data-name="Group 3" clip-path="url(#clip-path)">
        <path id="Fill_1" data-name="Fill 1" d="M.061,0h15.76a8.9,8.9,0,0,1,6.768,2.981,9.2,9.2,0,0,1,2.171,7.16H9a8.9,8.9,0,0,1-6.77-2.977A9.207,9.207,0,0,1,.061,0" transform="translate(0.042 0.175)" fill="#538fff"/>
      </g>
    </g>
    <path id="Fill_4" data-name="Fill 4" d="M0,10.137H15.757a11.124,11.124,0,0,0,7.419-2.974A11.456,11.456,0,0,0,26.914,0H11.148A11.124,11.124,0,0,0,3.729,2.978,11.428,11.428,0,0,0,0,10.137" transform="translate(1.743 11.7)" fill="#a0c8ff"/>
    <g id="Group_8" data-name="Group 8" transform="translate(0 11.569)">
      <path id="Clip_7-2" data-name="Clip 7" d="M0,0H12.892V26.042H0Z" transform="translate(0 0.131)" fill="none"/>
      <g id="Group_8-2" data-name="Group 8" clip-path="url(#clip-path-2)">
        <path id="Fill_6" data-name="Fill 6" d="M12.892,0q-.435,3.978-.87,7.956t-.87,7.948a11.461,11.461,0,0,1-3.735,7.164A11.117,11.117,0,0,1,0,26.042q.435-3.972.87-7.948t.874-7.956A11.441,11.441,0,0,1,5.472,2.978,11.124,11.124,0,0,1,12.892,0" transform="translate(0 0.131)" fill="#a0c8ff"/>
      </g>
    </g>
    <path id="Fill_9" data-name="Fill 9" d="M0,10.137H10.042q.274-2.53.553-5.065c.186-1.687.368-3.382.553-5.072-.084,0-.174,0-.257,0s-.17,0-.254.007-.177.011-.26.019L10.12.052c-.083.008-.167.019-.254.03L9.612.116C9.53.131,9.444.142,9.36.157S9.193.19,9.109.206L8.861.261C8.777.28,8.694.3,8.612.321s-.164.041-.245.064S8.2.434,8.122.456L7.88.535C7.8.561,7.718.587,7.637.617s-.158.06-.242.09S7.24.766,7.162.8s-.156.063-.236.1S6.773.969,6.7,1s-.152.071-.227.112-.156.075-.23.112-.149.079-.227.12-.147.082-.221.127L5.571,1.6c-.072.045-.15.09-.215.135s-.146.094-.218.142-.141.093-.21.142-.137.1-.206.149-.137.1-.206.154l-.2.157c-.066.053-.134.1-.2.161s-.129.112-.191.165-.129.116-.192.172-.125.115-.186.176-.122.115-.185.175-.123.123-.18.183S3.062,3.636,3,3.7s-.111.124-.171.188-.111.131-.17.194-.108.131-.162.2-.107.131-.159.2-.1.138-.159.205-.1.138-.15.206-.1.142-.146.213-.1.142-.144.213-.092.142-.137.217-.087.146-.132.221-.086.145-.128.22-.084.153-.126.227-.078.15-.117.229-.075.153-.114.232-.072.153-.108.232-.069.157-.1.236-.066.161-.1.24-.06.16-.09.243-.057.161-.083.243S.449,8.02.422,8.1s-.054.164-.075.247S.3,8.513.278,8.6s-.042.168-.063.251S.177,9.018.162,9.1s-.036.172-.051.254-.03.171-.042.258-.03.172-.042.258-.018.176-.027.262" transform="translate(1.743 11.7)" fill="#538fff"/>
  </g>
</svg>
